<svg width="280" height="66" fill="none" xmlns="http://www.w3.org/2000/svg"><path d="M54.403 13.314 35.642 65.383h49.246V13.313H54.403Z" fill="url('#paint0_linear_78_512')"/><path d="M56.748 19.973h9.38l11.256 19.09-11.257 19.556h-9.379l10.316-19.557-10.316-19.09Z" fill="#fff"/><path d="M30.485 51.882 49.243 0H0v51.882h30.485Z" fill="url('#paint1_linear_78_512')"/><path d="M28.608 45.305h-9.38L7.973 26.215 19.228 6.66h9.38L18.29 26.215l10.317 19.09ZM92.295 23.698a36.758 36.758 0 0 1 5.583-.379c3.383 0 5.478.548 7.22 1.746 1.935 1.333 3.18 3.522 3.18 6.747 0 3.576-1.353 5.9-3.068 7.237-1.929 1.495-4.805 2.162-8.24 2.162a31.532 31.532 0 0 1-4.675-.288V23.698Zm4.696 13.808c.331.044.665.061.998.05 3.045.038 5.299-1.633 5.299-5.595 0-3.431-2.03-5.045-4.866-5.045-.48-.014-.96.025-1.43.115v10.475ZM125.453 33.936h-6.311v3.235h7.062v3.844h-11.765v-17.56h11.393v3.843h-6.69v2.835h6.311v3.803ZM136.882 41.015l-5.579-17.56h5.163l1.864 6.912c.552 1.966 1.036 3.887 1.459 6.14h.05a87.325 87.325 0 0 1 1.442-6.062l1.908-6.984h5.007l-5.751 17.56-5.563-.006ZM164.775 33.936h-6.32v3.235h7.055v3.844h-11.758v-17.56h11.392v3.843h-6.689v2.835h6.32v3.803ZM171.779 23.454h4.703v13.619h6.767v3.942h-11.47v-17.56ZM204.701 32.058c0 5.647-3.383 9.244-8.797 9.244-5.414 0-8.459-4.084-8.459-8.963 0-5.112 3.347-9.169 8.726-9.169 5.661 0 8.53 4.189 8.53 8.888Zm-12.268.197c0 3.302 1.438 5.322 3.684 5.322 2.247 0 3.61-2.203 3.61-5.366 0-3.025-1.353-5.316-3.637-5.316-2.216 0-3.654 2.118-3.654 5.36h-.003ZM210.862 23.698a36.227 36.227 0 0 1 5.789-.379c2.528 0 4.338.457 5.57 1.4a5.223 5.223 0 0 1 1.999 4.226c0 1.78-.595 3.337-1.708 4.332-1.418 1.272-3.479 1.837-5.847 1.837-.457 0-.859-.037-1.147-.058v5.959h-4.656V23.698Zm4.666 7.748c.356.055.716.078 1.076.068 1.827 0 2.974-.948 2.974-2.457 0-1.31-.866-2.195-2.656-2.195a6.61 6.61 0 0 0-1.394.121v4.463ZM241.205 33.936h-6.311v3.235h7.052v3.844h-11.755v-17.56h11.389v3.843h-6.686v2.835h6.311v3.803ZM248.219 23.698a38.231 38.231 0 0 1 5.674-.379c2.707 0 4.615.372 5.938 1.353 1.127.86 1.732 2.112 1.732 3.83 0 2.19-1.641 3.746-3.008 4.247v.091c1.168.5 1.797 1.62 2.247 3.147.528 1.783 1.106 4.337 1.445 5.014h-4.805c-.267-.507-.724-1.881-1.231-4.06-.478-2.105-1.12-2.541-2.572-2.541h-.765v6.584h-4.655V23.698Zm4.655 7.346h1.225c1.773 0 2.795-.867 2.795-2.183 0-1.316-.866-2.064-2.429-2.077a7.45 7.45 0 0 0-1.591.105v4.155ZM268.253 36.339a10.786 10.786 0 0 0 4.554 1.086c1.607 0 2.402-.559 2.402-1.445s-.788-1.333-2.774-2.013c-2.958-1.05-4.93-2.683-4.93-5.295 0-3.106 2.619-5.488 7.054-5.488a11.504 11.504 0 0 1 4.737.896l-.984 3.76a9.272 9.272 0 0 0-3.817-.833c-1.431 0-2.219.524-2.219 1.296 0 .89.93 1.248 3.146 2.077 3.164 1.157 4.578 2.853 4.578 5.295 0 3.046-2.368 5.614-7.484 5.614-2.118 0-4.169-.555-5.163-1.07l.9-3.88Z" fill="#fff"/><defs><linearGradient id="paint0_linear_78_512" x1="-98109.8" y1="70987.2" x2="-98109.8" y2="62746.9" gradientUnits="userSpaceOnUse"><stop stop-color="#ACC0FE"/><stop offset="1" stop-color="#4B086D"/></linearGradient><linearGradient id="paint1_linear_78_512" x1="-103326" y1="72790.4" x2="-103326" y2="64580" gradientUnits="userSpaceOnUse"><stop stop-color="#ACC0FE"/><stop offset="1" stop-color="#4B086D"/></linearGradient></defs></svg>