<svg aria-hidden="true" style="width:0;height:0;position:absolute;overflow:hidden" xmlns="http://www.w3.org/2000/svg"><defs><symbol id="icon-star-half2" viewBox="0 0 16 32"><path fill="#fcbf29" style="fill:var(--color1,#fcbf29)" d="M15.954 12.329a.938.938 0 0 0-.757-.638l-9.92-1.442L.841 1.26A.938.938 0 0 0 0 .737V26.49l8.873 4.665a.938.938 0 0 0 1.36-.988l-1.695-9.88 7.179-6.997a.935.935 0 0 0 .237-.961z"/></symbol><symbol id="icon-Buy" viewBox="0 0 33 32"><path stroke-linejoin="round" stroke-linecap="round" stroke-width="2" d="M10.155 26.427a1.02 1.02 0 1 1 0 2.04 1.02 1.02 0 0 1 0-2.04zM25.159 26.427a1.02 1.02 0 1 1 0 2.04 1.02 1.02 0 0 1 0-2.04zM3.926 4.333l2.773.48L7.983 20.11a2.403 2.403 0 0 0 2.396 2.204h14.549a2.405 2.405 0 0 0 2.38-2.061l1.265-8.744a1.787 1.787 0 0 0-1.769-2.044H7.144M19.093 14.396h3.697"/></symbol><symbol id="icon-Search" viewBox="0 0 32 32"><path stroke-linejoin="round" stroke-linecap="round" stroke-width="2.286" d="M28.875 14.882c0 7.565-6.132 13.697-13.697 13.697S1.481 22.447 1.481 14.882c0-7.565 6.132-13.697 13.697-13.697s13.697 6.132 13.697 13.697zM24.705 25.12l5.37 5.356"/></symbol><symbol id="icon-arrow-2" viewBox="0 0 21 32"><path fill="#fff" style="fill:var(--color2,#fff)" d="M13.082 15.246 1.349 3.513 4.701.161l15.085 15.085L4.701 30.331l-3.352-3.352 11.733-11.733z"/></symbol><symbol id="icon-plus" viewBox="0 0 32 32"><path d="M19.474 12.313h12.252v4.972H19.474v13.07h-5.613v-13.07H1.609v-4.972h12.252V.238h5.613v12.075z"/></symbol><symbol id="icon-Arrow" viewBox="0 0 66 32"><path fill="#fff" style="fill:var(--color2,#fff)" d="M65.414 17.352a2 2 0 0 0 0-2.828L52.686 1.796a2 2 0 1 0-2.828 2.828l11.314 11.314-11.314 11.314a2 2 0 1 0 2.828 2.828l12.728-12.728zM0 17.938h64v-4H0v4z"/></symbol><symbol id="icon-delivery-man" viewBox="0 0 32 32"><path fill="#09a66d" style="fill:var(--color3,#09a66d)" d="M29.929 10.33h-5.294a1.66 1.66 0 0 0-1.657 1.658v6.094h-1.98c.11-.4.151-.872.124-1.421-.043-2.321-.464-4.277-1.252-5.813-.612-1.193-1.325-1.908-1.938-2.336.719-.739 1.134-1.79 1.134-3.003 0-2.182-1.741-3.957-3.88-3.957s-3.88 1.775-3.88 3.957c0 .253.205.457.457.457h.311a3.176 3.176 0 0 0 2.507 3.638c-.152.565-.228 1.232-.228 1.989l-1.141.981-2.775.224-3.201-1.058c-.293-.098-.626-.208-.915 0-.284.205-.284.564-.284.682v2.38c0 .253.205.457.457.457h.544l-.835 2.886a.457.457 0 0 0 .878.254l.909-3.14h1.3c-1.617 4.931-.694 8.223.724 11.554h-.822l-3.424-3.828.724-2.501a.456.456 0 1 0-.878-.254l-.692 2.392a4.6 4.6 0 0 0-4.546 3.566.457.457 0 0 0 .343.548l.649.149a3.506 3.506 0 0 0 3.49 3.836 3.48 3.48 0 0 0 1.851-.535 3.48 3.48 0 0 0 1.422-1.745l.512.118c.153.035.297.053.442-.025a.524.524 0 0 0 .258-.351c.032-.15.057-.302.074-.455h9.565c.306 1.902 1.924 3.335 3.856 3.335s3.55-1.433 3.856-3.335h.349l.085.001c.131 0 .32-.015.475-.172a.585.585 0 0 0 .162-.445 5.2 5.2 0 0 0-.187-1.239c.364-2.211.014-3.558-.506-4.612.328-.215.546-.586.546-1.008v-1.257h2.31a1.66 1.66 0 0 0 1.657-1.658v-5.35a1.66 1.66 0 0 0-1.657-1.658zM6.225 29.411a2.564 2.564 0 0 1-1.951.329 2.591 2.591 0 0 1-2.003-2.647l4.961 1.142a2.575 2.575 0 0 1-1.007 1.177zm2.288-1.821-7.114-1.637A3.684 3.684 0 0 1 5.04 23.54l3.485 3.896a3.938 3.938 0 0 1-.012.153zm6.908-7.969c-.133.35-.133.782-.133 1.379v1.726h-1.675v-2.368c0-2.677 1.461-3.154 2.116-3.232h4.483c-.018.608-.155 1.039-.415 1.313-.303.319-.822.475-1.587.476l-1.642.002c-.585 0-.972.237-1.149.704zm-.133 4.019v1.092h-3.261c.037-.339.142-.601.315-.782.258-.27.621-.31.814-.31h2.132zm4.906-7.429h-4.159a17.015 17.015 0 0 1-.438-1.692l1.264-.821c.69-.448 1.049-1.082.985-1.738a1.618 1.618 0 0 0-1.007-1.324c-.507-.203-1.053-.139-1.535.169.04-.437.114-.828.221-1.159.195-.02.389-.058.579-.114.387-.09.745-.233 1.068-.423.881.526 2.818 2.233 3.023 7.102zM12.256 5.05c.216-1.461 1.448-2.585 2.931-2.585 1.635 0 2.965 1.365 2.965 3.042 0 1.364-.654 2.464-1.709 2.948V6.049c0-.417-.159-.928-.919-.997l-.042-.002h-3.227zm.691 1.442c0-.181.021-.357.061-.527h2.453a.752.752 0 0 1 .064.009.63.63 0 0 1 .004.075v2.675a2.262 2.262 0 0 1-.328.024h-.003a2.258 2.258 0 0 1-2.251-2.257zm-.593 7.068 1.083-.088a.459.459 0 0 0 .261-.109l1.955-1.682c.189-.163.391-.246.587-.246a.704.704 0 0 1 .695.613c.03.309-.173.622-.573.882l-2.178 1.414h-1.831v-.784zm-1.933.157 1.018-.082v.71h-1.183c-.153 0-.191-.127-.195-.234-.002-.061.003-.365.36-.394zm-1.082-.316a1.34 1.34 0 0 0-.169.94v.004H6.954v-1.736l2.386.789-.002.004zm.92 1.858h4.061a.46.46 0 0 0 .249-.074l.207-.134c.1.44.213.868.336 1.273-.933.275-2.413 1.165-2.413 4.034v2.413c-.321.065-.7.214-1.018.547-.335.35-.526.825-.572 1.414h-.923c-.93-2.679-1.283-5.53.072-9.473zm.753 11.553a35.938 35.938 0 0 1-.485-1.165h4.748c.615 0 .927-.28.927-.833v-3.357h3.61a.457.457 0 1 0 0-.914h-3.606c.006-.26.022-.472.07-.598.023-.061.043-.114.294-.114l1.642-.002c1.028-.001 1.764-.25 2.249-.761l.065-.073h6.178v1.257c0 .157-.132.29-.289.29h-4.553a.457.457 0 1 0 0 .914h4.284c.362.671.687 1.506.667 2.825a4.945 4.945 0 0 0-4.032-2.065 4.922 4.922 0 0 0-3.527 1.475 5.038 5.038 0 0 0-1.438 3.121l-6.805-.001zm11.827 3.336c-1.43 0-2.635-1.03-2.927-2.42h5.854c-.292 1.39-1.498 2.42-2.927 2.42zm3.447-3.335h-7.55c.225-2.068 1.954-3.681 4.046-3.681a4.059 4.059 0 0 1 3.892 2.908l.005.016c.072.243.123.497.151.758h-.544zm4.386-9.475c0 .41-.333.743-.742.743h-6.036v-2.362h6.779v1.618zm0-2.533h-6.779v-.973h6.779v.973zm0-1.887h-6.779v-.93c0-.41.333-.743.742-.743h5.294c.409 0 .742.333.742.743v.93z"/></symbol><symbol id="icon-timer" viewBox="0 0 42 32"><path fill="#09a66d" style="fill:var(--color3,#09a66d)" d="M3.62 7.794h6.379a.605.605 0 0 0 0-1.21H3.62a.605.605 0 0 0 0 1.21zM9.78 10.706H7.26a.605.605 0 0 0 0 1.21h2.52a.605.605 0 0 0 0-1.21zM1.09 14.9h6.17a.605.605 0 0 0 0-1.21H1.09a.605.605 0 0 0 0 1.21zM10.604 25.623a.605.605 0 0 0-.605-.605H3.62a.605.605 0 0 0 0 1.21h6.379a.605.605 0 0 0 .605-.605zM9.78 20.897H7.26a.605.605 0 0 0 0 1.21h2.52a.605.605 0 0 0 0-1.21zM7.865 18.517a.605.605 0 0 0-.605-.605H1.09a.605.605 0 0 0 0 1.21h6.17a.605.605 0 0 0 .605-.605zM26.253 9.134a.605.605 0 0 0 .605-.605v-.923a.605.605 0 0 0-1.21 0v.923c0 .334.271.605.605.605zM32.904 9.756a.605.605 0 0 0-.855 0l-.653.653a.605.605 0 0 0 .855.855l.653-.653a.605.605 0 0 0 0-.855zM34.129 15.801a.605.605 0 0 0 0 1.21h.923a.605.605 0 0 0 0-1.21h-.923zM32.251 21.548a.605.605 0 0 0-.855.855l.653.653a.605.605 0 0 0 .855-.855l-.653-.653zM25.648 24.283v.923a.605.605 0 0 0 1.21 0v-.923a.605.605 0 0 0-1.21 0zM20.256 21.548l-.653.653a.605.605 0 0 0 .855.855l.653-.653a.605.605 0 0 0-.855-.855zM17.453 15.801a.605.605 0 0 0 0 1.21h.923a.605.605 0 0 0 0-1.21h-.923zM21.112 10.409l-.653-.653a.605.605 0 0 0-.855.855l.653.653a.605.605 0 0 0 .855-.855zM29.506 16.406a.605.605 0 0 0-.605-.605h-2.043V11.31a.605.605 0 0 0-1.21 0v5.096c0 .334.271.605.605.605h2.648a.605.605 0 0 0 .605-.605z"/><path fill="#09a66d" style="fill:var(--color3,#09a66d)" d="M37.722 16.306a.605.605 0 0 0 .567-.64c-.385-6.347-5.672-11.319-12.036-11.319-6.649 0-12.059 5.41-12.059 12.059s5.41 12.059 12.059 12.059c5.957 0 11.04-4.365 11.925-10.255a.605.605 0 0 0-1.196-.18c-.794 5.291-5.363 9.225-10.728 9.225-5.982 0-10.849-4.867-10.849-10.849S20.272 5.557 26.254 5.557c5.726 0 10.482 4.473 10.828 10.182.02.333.307.586.64.567z"/><path fill="#09a66d" style="fill:var(--color3,#09a66d)" d="M26.254.884c-2.127 0-4.212.441-6.13 1.267H9.452a.605.605 0 0 0 0 1.21h8.396a15.552 15.552 0 0 0-3.102 2.629.605.605 0 0 0 .896.812 14.344 14.344 0 0 1 10.611-4.708c7.892 0 14.312 6.42 14.312 14.312s-6.42 14.312-14.312 14.312c-7.892 0-14.312-6.42-14.312-14.312 0-2.764.789-5.446 2.283-7.757a.604.604 0 1 0-1.016-.656 15.465 15.465 0 0 0-2.476 8.413c0 5.465 2.839 10.279 7.12 13.045h-8.4a.605.605 0 0 0 0 1.21h10.663a15.44 15.44 0 0 0 6.139 1.267c8.559 0 15.522-6.963 15.522-15.522S34.813.884 26.254.884z"/></symbol><symbol id="icon-harvest" viewBox="0 0 32 32"><path fill="#09a66d" style="fill:var(--color3,#09a66d)" d="M22.472 10h1.45a2.505 2.505 0 0 0 2.45-2h-1.45a2.506 2.506 0 0 0-2.45 2zM11 5.5c.05 0 .098.006.147.008l.351-3.51c.002-.294-.201-.498-.45-.498h-.095a.453.453 0 0 0-.453.453l.354 3.555c.049-.002.097-.008.146-.008zM7 16c0-.171.018-.337.045-.5H6v.342c.375.179.713.42 1 .713V16zM6.595 3.778l1.711 2.518c.134-.087.273-.167.415-.24L7.692 3.227l-.024-.057a.547.547 0 0 0-.74-.254l-.125.063a.549.549 0 0 0-.207.799zM8.691 14.5h5.569l.656-3.148a4 4 0 0 0 .084-.816C15 8.294 13.206 6.5 11 6.5s-4 1.794-4 4c0 .309.029.584.084.852l.578 2.773A2.993 2.993 0 0 1 10 13v1c-.502 0-.957.193-1.309.5zm3.809-6h1v1h-1v-1zm0 2h1v1h-1v-1zm0 2h1v1h-1v-1zM5.5 18.5h1.45a2.505 2.505 0 0 0-2.45-2H3.05a2.505 2.505 0 0 0 2.45 2zM15.405 3.777a.55.55 0 0 0-.209-.798l-.125-.063a.547.547 0 0 0-.764.311l-1.028 2.829c.143.074.281.154.415.24l1.711-2.518zM14.492 24.5H28.5v-3H13.826c.441.928.665 1.949.666 3zm12.008-2h1v1h-1v-1zM13.232 28.5H27c.827 0 1.5-.673 1.5-1.5v-1.5H14.428a6.942 6.942 0 0 1-1.197 3zm13.268-2h1v1h-1v-1zM8.071 15.5A1.966 1.966 0 0 0 8 16v.5h22.5v-1H8.071zM8 18.933a1.75 1.75 0 0 0 .293-.09 3.883 3.883 0 0 1 4.413.977c.194.215.368.445.531.678H28.5v-3H8v1.434zm18.5-.433h1v1h-1v-1z"/><path fill="#09a66d" style="fill:var(--color3,#09a66d)" d="M11.963 20.49a2.92 2.92 0 0 0-3.277-.727 2.99 2.99 0 0 1-.686.193v.942c.496-.185.968-.575 1.147-.753l.707.708c-.117.117-1.18 1.146-2.354 1.146s-2.236-1.029-2.354-1.146l.707-.708c.179.177.651.567 1.147.753V19.5H5.5c-.17 0-.335-.016-.497-.04-.701.05-1.442.442-1.988 1.055A5.988 5.988 0 0 0 1.501 24.5c0 1.646.654 3.182 1.841 4.324s2.739 1.731 4.399 1.672c3.091-.119 5.619-2.634 5.755-5.723a5.978 5.978 0 0 0-1.532-4.282zM7.5 29.5c-2.757 0-5-2.243-5-5h1c0 2.206 1.795 4 4 4v1zM26.385 14.5a5.962 5.962 0 0 0-1.345-2.51 2.919 2.919 0 0 0-3.277-.726 2.584 2.584 0 0 1-.264.095V7c0-.827.673-1.5 1.5-1.5h.5v-1h-.5a2.503 2.503 0 0 0-2.5 2.5v4.359a2.848 2.848 0 0 1-.264-.095 2.923 2.923 0 0 0-3.277.726 5.984 5.984 0 0 0-1.345 2.51h10.771zm-7.632-2.431c.008.004.765.431 2.247.431s2.239-.427 2.247-.431l.511.86c-.038.024-.973.572-2.757.572s-2.718-.548-2.758-.572l.511-.86z"/></symbol><symbol id="icon-instagram" viewBox="0 0 32 32"><path d="M30.819 10.042c-.072-1.632-.336-2.754-.714-3.727a7.496 7.496 0 0 0-1.776-2.724 7.555 7.555 0 0 0-2.719-1.77c-.978-.378-2.094-.642-3.727-.714-1.644-.078-2.167-.096-6.337-.096s-4.693.018-6.331.09c-1.632.072-2.754.336-3.727.714a7.508 7.508 0 0 0-2.725 1.776A7.555 7.555 0 0 0 .993 6.31c-.378.978-.642 2.094-.714 3.727-.078 1.644-.096 2.167-.096 6.337s.018 4.693.09 6.331c.072 1.632.336 2.754.714 3.727a7.574 7.574 0 0 0 1.776 2.724 7.555 7.555 0 0 0 2.719 1.77c.978.378 2.094.642 3.727.714 1.638.072 2.16.09 6.331.09s4.693-.018 6.331-.09c1.632-.072 2.754-.336 3.727-.714a7.856 7.856 0 0 0 4.495-4.495c.378-.978.642-2.095.714-3.727.072-1.638.09-2.16.09-6.331s-.006-4.693-.078-6.331zm-2.767 12.543c-.066 1.5-.318 2.31-.528 2.851a5.095 5.095 0 0 1-2.917 2.917c-.54.21-1.356.462-2.851.528-1.62.072-2.106.09-6.205.09s-4.591-.018-6.205-.09c-1.5-.066-2.31-.318-2.851-.528a4.724 4.724 0 0 1-1.764-1.146 4.773 4.773 0 0 1-1.146-1.764c-.21-.54-.462-1.356-.528-2.851-.072-1.62-.09-2.107-.09-6.205s.018-4.591.09-6.205c.066-1.5.318-2.31.528-2.851a4.667 4.667 0 0 1 1.152-1.764c.498-.51 1.098-.9 1.764-1.146.54-.21 1.356-.462 2.851-.528 1.62-.072 2.107-.09 6.205-.09 4.105 0 4.591.018 6.205.09 1.5.066 2.31.318 2.851.528a4.724 4.724 0 0 1 1.764 1.146c.51.498.9 1.098 1.146 1.764.21.54.462 1.356.528 2.851.072 1.62.09 2.106.09 6.205s-.018 4.579-.09 6.199z"/><path d="M15.546 8.482c-4.357 0-7.892 3.535-7.892 7.891s3.535 7.892 7.892 7.892a7.893 7.893 0 0 0 0-15.784zm0 13.01a5.12 5.12 0 1 1 .002-10.24 5.12 5.12 0 0 1-.002 10.24zM25.592 8.17a1.843 1.843 0 1 1-3.685-.001 1.843 1.843 0 0 1 3.685.001z"/></symbol><symbol id="icon-planet-earth" viewBox="0 0 33 32"><path fill="#89c8fd" style="fill:var(--color4,#89c8fd)" d="M24.242 18.41c0-5.816-4.702-10.531-10.503-10.531S3.236 12.594 3.236 18.41c0 5.816 4.702 10.531 10.503 10.531s10.503-4.715 10.503-10.531z"/><path fill="#60b6ff" style="fill:var(--color5,#60b6ff)" d="M13.739 7.879c-.539 0-1.069.041-1.586.119 5.048.767 8.917 5.136 8.917 10.412s-3.869 9.645-8.917 10.412c.517.079 1.047.119 1.586.119 5.801 0 10.503-4.715 10.503-10.531S19.54 7.879 13.739 7.879z"/><path fill="#baeb6c" style="fill:var(--color6,#baeb6c)" d="M12.374 11.971c-1.618 1.014-2.832 2.636-1.921 4.461s2.933 1.115 4.803.862c1.871-.253.455 5.526 1.567 6.945s4.247-1.419 3.944-3.245c-.449-2.702-.607-3.65 3.034-5.576l.01-.004c-1.227-4.155-4.941-7.238-9.414-7.515l-.001.016s-.405 3.042-2.022 4.056zM20.32 10.202l.002.002-.002-.002zM21.604 11.431v.001-.001zM6.762 23.175c-.486-.741.86-2.484 1.163-3.802S6.408 18.156 5.852 17.7c-.556-.456-1.315-2.433-1.871-2.89l-.089-.07a10.528 10.528 0 0 0-.656 3.669c0 3.481 1.685 6.567 4.281 8.484l.003-.221s.404-1.724-.758-3.498z"/><path fill="#baeb6c" style="fill:var(--color6,#baeb6c)" d="M20.767 20.995a.532.532 0 0 0-.007-.039 10.522 10.522 0 0 1-.872 2.312c.597-.705.997-1.565.879-2.272z"/><path fill="#96d629" style="fill:var(--color7,#96d629)" d="M14.397 7.9v.016s-.034.254-.121.639a10.536 10.536 0 0 1 6.751 8.888c.464-.635 1.313-1.25 2.774-2.024l.01-.004C22.584 11.26 18.87 8.177 14.397 7.9z"/><path fill="#09a66d" style="fill:var(--color3,#09a66d)" d="M13.725 32c-.744 0-1.493-.061-2.242-.185-3.579-.591-6.714-2.541-8.827-5.489S-.295 19.782.296 16.203a.476.476 0 0 1 .939.155c-.55 3.328.23 6.672 2.195 9.414s4.88 4.555 8.209 5.105c6.872 1.135 13.384-3.532 14.52-10.403.55-3.328-.23-6.672-2.195-9.414s-4.88-4.555-8.209-5.105a.476.476 0 0 1 .155-.939c3.58.591 6.715 2.541 8.827 5.489s2.951 6.544 2.36 10.123a13.493 13.493 0 0 1-5.49 8.827A13.483 13.483 0 0 1 13.725 32z"/><path fill="#49cb5c" style="fill:var(--color8,#49cb5c)" d="M10.836 11.493c-5.079-.862-8.23-7.257-8.23-7.257S7.69-.762 12.769.1c5.079.862 8.23 7.257 8.23 7.257s-5.084 4.998-10.163 4.136z"/><path fill="#07b128" style="fill:var(--color9,#07b128)" d="M12.77.1c-.97-.165-1.94-.115-2.874.072 4.867 1.093 7.869 7.184 7.869 7.184s-3.328 3.271-7.289 4.064c.119.027.239.052.361.072C15.916 12.354 21 7.356 21 7.356S17.849.961 12.77.099z"/><path fill="#09a66d" style="fill:var(--color3,#09a66d)" d="m20.713 6.825-4.967-.838-4.64-5.974c-.37.022-.737.069-1.099.137l4.352 5.603-3.745-.632L7.418.986c-.3.135-.591.279-.872.428l2.685 3.474-6.193-1.045c-.278.243-.431.393-.431.393s.102.207.298.55l6.159 1.039-3.416 2.641c.22.227.451.45.692.668l4.001-3.094 3.965.669-5.393 4.172c.335.156.681.292 1.037.4l5.632-4.357 4.97.838c.288-.251.447-.407.447-.407s-.098-.199-.287-.531z"/><path fill="#49cb5c" style="fill:var(--color8,#49cb5c)" d="M24.454 5.285c1.363-3.224 6.084-4.31 6.084-4.31s2.512 4.142 1.149 7.366c-1.362 3.224-6.084 4.31-6.084 4.31s-2.512-4.142-1.149-7.366z"/><path fill="#07b128" style="fill:var(--color9,#07b128)" d="M30.538.976s-1.073.247-2.345.855c.652 1.381 1.686 4.185.703 6.511-.713 1.687-2.344 2.788-3.739 3.455.252.533.447.855.447.855s4.721-1.085 6.084-4.31c1.362-3.224-1.15-7.366-1.15-7.366z"/><path fill="#09a66d" style="fill:var(--color3,#09a66d)" d="m32.073 5.683-3.63 1.523 2.384-5.699c-.171-.337-.289-.531-.289-.531s-.225.052-.59.166l-2.463 5.889-1.528-3.759a6.454 6.454 0 0 0-.724.745l1.731 4.259-1.626 3.887c.159.31.266.488.266.488s.244-.056.637-.181l1.679-4.014 4.152-1.742a6.85 6.85 0 0 0 .002-1.033z"/></symbol><symbol id="icon-shopping" viewBox="0 0 32 32"><path fill="#09a66d" style="fill:var(--color3,#09a66d)" d="M11.829 22.412h8.11a.457.457 0 1 0 0-.914h-8.11a.457.457 0 1 0 0 .914zm1.433-10.492h5.429a.928.928 0 0 0 .893-.662l1.139-3.755c.087-.286.035-.587-.143-.827s-.451-.377-.75-.377h-.406l-.829-2.072a1.243 1.243 0 0 0-1.159-.785h-2.921a1.24 1.24 0 0 0-1.159.785l-.829 2.072h-.406c-.299 0-.572.138-.75.378s-.23.541-.143.827l1.14 3.755c.12.396.479.662.893.662zm-1.155-4.699c.014-.019 2.488-.002 2.505-.008a.457.457 0 1 0 0-.914h-1.099l.693-1.733a.332.332 0 0 1 .31-.21h2.921c.137 0 .259.082.31.21l.693 1.733h-1.694a.457.457 0 1 0 0 .914c.015 0 3.088-.008 3.1.008.014.018-1.137 3.752-1.137 3.771 0 .041-5.463.008-5.466 0-.006-.019-1.15-3.753-1.137-3.771zm-.278 19.753a.457.457 0 1 0 0 .914h8.11a.457.457 0 1 0 0-.914h-8.11zm12.226-1.372a.457.457 0 0 0-.457-.457H11.829a.457.457 0 1 0 0 .914h11.769a.457.457 0 0 0 .457-.457zm2.286-4.886a.457.457 0 0 0 .457-.457V2.984A2.29 2.29 0 0 0 24.511.697H7.44a2.29 2.29 0 0 0-2.287 2.287V29.63a2.29 2.29 0 0 0 2.287 2.287h17.071a2.29 2.29 0 0 0 2.287-2.287v-7.237a.457.457 0 1 0-.914 0v7.237c0 .757-.616 1.372-1.372 1.372H7.441a1.374 1.374 0 0 1-1.372-1.372V2.984c0-.757.615-1.372 1.372-1.372h17.071c.756 0 1.372.615 1.372 1.372v17.275c0 .253.205.457.457.457zm-16.32 2.046c-.225.003-.461.005-.678.006.154-.209.348-.478.591-.825.213-.304.363-.579.402-.865.006-.047.019-.131.019-.176a1.237 1.237 0 0 0-2.449-.239.457.457 0 1 0 .898.176.32.32 0 0 1 .635.04c.012.164-.072.278-.255.539-.48.687-.767 1.062-.921 1.263-.269.352-.397.811.068.966.06.02 1.267.034 1.701.028.253-.003.455-.21.451-.463s-.213-.456-.463-.452zm13.577-3.094H11.829a.457.457 0 1 0 0 .914h11.769a.457.457 0 1 0 0-.914zM9.191 25.145c-.589 0-1.099.419-1.213.997a.457.457 0 1 0 .898.176.32.32 0 1 1 .315.384.457.457 0 1 0 0 .914.321.321 0 1 1-.321.321.457.457 0 1 0-.914 0c0 .672.557 1.236 1.236 1.236a1.237 1.237 0 0 0 .959-2.014 1.237 1.237 0 0 0-.959-2.014zm0-6.973a.457.457 0 0 0 .457-.457v-3.042a.458.458 0 0 0-.457-.457h-.65a.457.457 0 1 0 0 .914h.193v2.585c0 .253.205.457.457.457zm2.638-1.213h8.11a.457.457 0 1 0 0-.914h-8.11a.457.457 0 1 0 0 .914zm11.769-2.744H11.829a.457.457 0 1 0 0 .914h11.769a.457.457 0 1 0 0-.914z"/></symbol><symbol id="icon-user" viewBox="0 0 32 32"><path fill="#09a66d" style="fill:var(--color3,#09a66d)" d="M16.002 0C11.43 0 7.694 3.737 7.694 8.308s3.737 8.308 8.308 8.308 8.308-3.737 8.308-8.308S20.573 0 16.002 0zM30.261 23.256a7.804 7.804 0 0 0-.834-1.524c-1.669-2.467-4.245-4.1-7.147-4.499-.363-.036-.762.036-1.052.254-1.524 1.125-3.338 1.705-5.224 1.705s-3.701-.58-5.225-1.705a1.362 1.362 0 0 0-1.052-.254 10.252 10.252 0 0 0-7.147 4.499 8.863 8.863 0 0 0-.834 1.524c-.109.218-.073.472.036.689.29.508.653 1.016.98 1.451a13.837 13.837 0 0 0 1.669 1.887c.508.508 1.088.98 1.669 1.451 2.866 2.141 6.313 3.265 9.868 3.265s7.002-1.125 9.869-3.265a15.85 15.85 0 0 0 1.669-1.451c.581-.581 1.161-1.197 1.669-1.887.363-.472.689-.943.98-1.451.181-.218.218-.472.109-.689z"/></symbol><symbol id="icon-star-half" viewBox="0 0 33 32"><path fill="#f1b90b" style="fill:var(--color10,#f1b90b)" d="m16.618 22.406 5.959 3.335-1.332-6.697 5.014-4.637-6.782-.804-2.86-6.201v15.004zm0 3.216-9.897 5.54 2.21-11.124-8.328-7.701 11.263-1.336L16.617.702l4.751 10.299 11.263 1.336-8.328 7.701 2.21 11.124-9.897-5.54z"/></symbol><symbol id="icon-arrow-1" viewBox="0 0 20 32"><path fill="#ccc" style="fill:var(--color11,#ccc)" d="M6.821 15.247 18.554 26.98l-3.352 3.352L.117 15.247 15.202.162l3.352 3.352L6.821 15.247z"/></symbol><symbol id="icon-facebook" viewBox="0 0 17 32"><path d="M9.729 11.571v-3.84c0-1.06.86-1.92 1.92-1.92h1.92v-4.8h-3.84a5.76 5.76 0 0 0-5.76 5.76v4.8H.129v4.8h3.84v15.36h5.76v-15.36h3.84l1.92-4.8h-5.76z"/></symbol><symbol id="icon-twitter" viewBox="0 0 40 32"><path d="M38.561 3.757A16.41 16.41 0 0 1 34.025 5 7.826 7.826 0 0 0 37.488.649a15.755 15.755 0 0 1-4.992 1.906 7.89 7.89 0 0 0-5.75-2.491c-4.358 0-7.867 3.538-7.867 7.874 0 .624.053 1.224.182 1.795-6.545-.319-12.336-3.456-16.226-8.234a7.926 7.926 0 0 0-1.078 3.979 7.883 7.883 0 0 0 3.497 6.542 7.767 7.767 0 0 1-3.557-.97v.086c0 3.826 2.729 7.003 6.307 7.735a7.866 7.866 0 0 1-2.064.259c-.504 0-1.013-.029-1.49-.134 1.02 3.118 3.914 5.41 7.356 5.484a15.818 15.818 0 0 1-9.761 3.358c-.646 0-1.265-.029-1.884-.108 3.487 2.249 7.62 3.533 12.077 3.533 14.486 0 22.406-12 22.406-22.402 0-.348-.012-.684-.029-1.018 1.562-1.109 2.875-2.494 3.946-4.087z"/></symbol><symbol id="icon-star-light" viewBox="0 0 32 32"><path fill="#fed42d" style="fill:var(--color12,#fed42d)" d="M31.954 12.329a.938.938 0 0 0-.757-.638l-9.92-1.442-4.436-8.989a.938.938 0 0 0-1.682 0l-4.437 8.989-9.92 1.442a.938.938 0 0 0-.52 1.599l7.178 6.997-1.694 9.88a.938.938 0 0 0 1.36.988l8.873-4.665 8.872 4.665a.938.938 0 0 0 1.36-.988l-1.695-9.88 7.179-6.997a.935.935 0 0 0 .237-.961z"/></symbol><symbol id="icon-star" viewBox="0 0 33 32"><path fill="#f1b90b" style="fill:var(--color10,#f1b90b)" d="m17.121 25.622-9.897 5.54 2.21-11.124-8.328-7.701 11.263-1.336L17.12.702l4.751 10.299 11.263 1.336-8.328 7.701 2.21 11.124-9.897-5.54z"/></symbol></defs></svg>