<svg width="280" height="66" viewBox="0 0 280 66" fill="none" xmlns="http://www.w3.org/2000/svg">
<path d="M54.403 13.3141L35.6416 65.3825H84.8882V13.3141H54.403Z" fill="url(#paint0_linear_78_512)"/>
<path d="M56.748 19.9727H66.1271L77.3839 39.0623L66.1271 58.6189H56.748L67.0643 39.0623L56.748 19.9727Z" fill="white"/>
<path d="M30.4852 51.8823L49.2432 0H0V51.8823H30.4852Z" fill="url(#paint1_linear_78_512)"/>
<path d="M28.6075 45.3048H19.2285L7.97168 26.2152L19.2285 6.65869H28.6075L18.2913 26.2152L28.6075 45.3048Z" fill="white"/>
<path d="M92.2949 23.698C94.1435 23.43 96.0098 23.3033 97.8777 23.319C101.261 23.319 103.356 23.8672 105.098 25.0649C107.033 26.398 108.278 28.5871 108.278 31.8116C108.278 35.3879 106.925 37.7124 105.21 39.0489C103.281 40.5444 100.405 41.2109 96.9709 41.2109C95.4073 41.2311 93.8443 41.135 92.2949 40.9233V23.698ZM96.9912 37.506C97.322 37.5502 97.6558 37.5672 97.9893 37.5567C101.034 37.594 103.288 35.9225 103.288 31.9605C103.288 28.5296 101.258 26.9157 98.4224 26.9157C97.9426 26.9023 97.4627 26.9409 96.9912 27.0307V37.506Z" fill="white"/>
<path d="M125.453 33.9364H119.142V37.171H126.204V41.0146H114.439V23.4543H125.832V27.298H119.142V30.1333H125.453V33.9364Z" fill="white"/>
<path d="M136.882 41.0146L131.303 23.4543H136.466L138.33 30.3668C138.882 32.3326 139.366 34.2544 139.789 36.5078H139.839C140.262 34.3661 140.766 32.3326 141.281 30.4446L143.189 23.4611H148.196L142.445 41.0214L136.882 41.0146Z" fill="white"/>
<path d="M164.775 33.9364H158.455V37.171H165.51V41.0146H153.752V23.4543H165.144V27.298H158.455V30.1333H164.775V33.9364Z" fill="white"/>
<path d="M171.779 23.4543H176.482V37.0729H183.249V41.0146H171.779V23.4543Z" fill="white"/>
<path d="M204.701 32.0584C204.701 37.7054 201.318 41.3021 195.904 41.3021C190.49 41.3021 187.445 37.2182 187.445 32.3392C187.445 27.2268 190.792 23.17 196.171 23.17C201.832 23.17 204.701 27.3588 204.701 32.0584ZM192.433 32.2546C192.433 35.5569 193.871 37.5769 196.117 37.5769C198.364 37.5769 199.727 35.3742 199.727 32.2107C199.727 29.1858 198.374 26.8952 196.09 26.8952C193.874 26.8952 192.436 29.0133 192.436 32.2546H192.433Z" fill="white"/>
<path d="M210.862 23.6979C212.779 23.417 214.715 23.2903 216.651 23.319C219.179 23.319 220.989 23.7757 222.221 24.7197C222.859 25.2204 223.372 25.863 223.72 26.5965C224.067 27.3301 224.238 28.1344 224.22 28.9457C224.22 30.7254 223.625 32.2818 222.512 33.2766C221.094 34.5487 219.033 35.1138 216.665 35.1138C216.208 35.1138 215.806 35.0766 215.518 35.0563V41.0146H210.862V23.6979ZM215.528 31.4461C215.884 31.5013 216.244 31.5239 216.604 31.5138C218.431 31.5138 219.578 30.5664 219.578 29.0573C219.578 27.7479 218.712 26.8615 216.922 26.8615C216.454 26.8527 215.987 26.8935 215.528 26.9833V31.4461Z" fill="white"/>
<path d="M241.205 33.9364H234.894V37.171H241.946V41.0146H230.191V23.4543H241.58V27.298H234.894V30.1333H241.205V33.9364Z" fill="white"/>
<path d="M248.219 23.698C250.098 23.431 251.995 23.3043 253.893 23.319C256.6 23.319 258.508 23.6912 259.831 24.6724C260.958 25.5318 261.563 26.7837 261.563 28.5025C261.563 30.6916 259.922 32.248 258.555 32.7488V32.8401C259.723 33.3409 260.352 34.4608 260.802 35.9868C261.33 37.7699 261.908 40.3244 262.247 41.0011H257.442C257.175 40.4936 256.718 39.1199 256.211 36.9409C255.733 34.8364 255.091 34.3999 253.639 34.3999H252.874V40.9842H248.219V23.698ZM252.874 31.0435H254.099C255.872 31.0435 256.894 30.1773 256.894 28.8612C256.894 27.545 256.028 26.7972 254.465 26.7837C253.932 26.7617 253.399 26.7968 252.874 26.8886V31.0435Z" fill="white"/>
<path d="M268.253 36.3386C269.673 37.0296 271.227 37.4003 272.807 37.4247C274.414 37.4247 275.209 36.8664 275.209 35.98C275.209 35.0935 274.421 34.6469 272.435 33.9668C269.477 32.9179 267.505 31.2837 267.505 28.6716C267.505 25.5656 270.124 23.1836 274.559 23.1836C276.184 23.1446 277.798 23.4502 279.296 24.0803L278.312 27.8393C277.113 27.2939 275.812 27.0102 274.495 27.007C273.064 27.007 272.276 27.5314 272.276 28.3028C272.276 29.1927 273.206 29.5513 275.422 30.3803C278.586 31.5374 280 33.2326 280 35.6754C280 38.7206 277.632 41.2886 272.516 41.2886C270.398 41.2886 268.347 40.7337 267.353 40.2195L268.253 36.3386Z" fill="white"/>
<defs>
<linearGradient id="paint0_linear_78_512" x1="-98109.8" y1="70987.2" x2="-98109.8" y2="62746.9" gradientUnits="userSpaceOnUse">
<stop stop-color="#ACC0FE"/>
<stop offset="1" stop-color="#4B086D"/>
</linearGradient>
<linearGradient id="paint1_linear_78_512" x1="-103326" y1="72790.4" x2="-103326" y2="64580" gradientUnits="userSpaceOnUse">
<stop stop-color="#ACC0FE"/>
<stop offset="1" stop-color="#4B086D"/>
</linearGradient>
</defs>
</svg>
