<svg aria-hidden="true" style="position: absolute; width: 0; height: 0; overflow: hidden;" version="1.1" xmlns="http://www.w3.org/2000/svg" xmlns:xlink="http://www.w3.org/1999/xlink">
<defs>
<symbol id="icon-star-half2" viewBox="0 0 16 32">
<path fill="#fcbf29" style="fill: var(--color1, #fcbf29)" d="M15.954 12.329c-0.11-0.339-0.404-0.587-0.757-0.638l-9.92-1.442-4.436-8.989c-0.158-0.32-0.484-0.523-0.841-0.523v25.753l8.873 4.665c0.137 0.072 0.287 0.108 0.436 0.108 0.194 0 0.388-0.060 0.551-0.179 0.289-0.21 0.433-0.565 0.373-0.917l-1.695-9.88 7.179-6.997c0.256-0.249 0.348-0.622 0.237-0.961z"></path>
</symbol>
<symbol id="icon-Buy" viewBox="0 0 33 32">
<path stroke-linejoin="round" stroke-linecap="round" stroke-miterlimit="4" stroke-width="2" d="M10.155 26.427c0.563 0 1.020 0.457 1.020 1.020s-0.457 1.019-1.020 1.019c-0.563 0-1.019-0.456-1.019-1.019s0.456-1.020 1.019-1.020z"></path>
<path stroke-linejoin="round" stroke-linecap="round" stroke-miterlimit="4" stroke-width="2" d="M25.159 26.427c0.563 0 1.020 0.457 1.020 1.020s-0.457 1.019-1.020 1.019c-0.563 0-1.020-0.456-1.020-1.019s0.457-1.020 1.020-1.020z"></path>
<path stroke-linejoin="round" stroke-linecap="round" stroke-miterlimit="4" stroke-width="2" d="M3.926 4.333l2.773 0.48 1.284 15.297c0.104 1.247 1.145 2.204 2.396 2.204h14.549c1.195 0 2.208-0.877 2.38-2.061l1.265-8.744c0.156-1.079-0.68-2.044-1.769-2.044h-19.66"></path>
<path stroke-linejoin="round" stroke-linecap="round" stroke-miterlimit="4" stroke-width="2" d="M19.093 14.396h3.697"></path>
</symbol>
<symbol id="icon-Search" viewBox="0 0 32 32">
<path stroke-linejoin="round" stroke-linecap="round" stroke-miterlimit="4" stroke-width="2.2857" d="M28.875 14.882c0 7.565-6.132 13.697-13.697 13.697s-13.697-6.132-13.697-13.697c0-7.565 6.132-13.697 13.697-13.697s13.697 6.132 13.697 13.697z"></path>
<path stroke-linejoin="round" stroke-linecap="round" stroke-miterlimit="4" stroke-width="2.2857" d="M24.705 25.12l5.37 5.356"></path>
</symbol>
<symbol id="icon-arrow-2" viewBox="0 0 21 32">
<path fill="#fff" style="fill: var(--color2, #fff)" d="M13.082 15.246l-11.733-11.733 3.352-3.352 15.085 15.085-15.085 15.085-3.352-3.352 11.733-11.733z"></path>
</symbol>
<symbol id="icon-plus" viewBox="0 0 32 32">
<path d="M19.474 12.313h12.252v4.972h-12.252v13.070h-5.613v-13.070h-12.252v-4.972h12.252v-12.075h5.613v12.075z"></path>
</symbol>
<symbol id="icon-Arrow" viewBox="0 0 66 32">
<path fill="#fff" style="fill: var(--color2, #fff)" d="M65.414 17.352c0.781-0.781 0.781-2.047 0-2.828l-12.728-12.728c-0.781-0.781-2.047-0.781-2.828 0s-0.781 2.047 0 2.828l11.314 11.314-11.314 11.314c-0.781 0.781-0.781 2.047 0 2.828s2.047 0.781 2.828 0l12.728-12.728zM0 17.938h64v-4h-64v4z"></path>
</symbol>
<symbol id="icon-delivery-man" viewBox="0 0 32 32">
<path fill="#09a66d" style="fill: var(--color3, #09a66d)" d="M29.929 10.33h-5.294c-0.914 0-1.657 0.744-1.657 1.658v6.094h-1.98c0.11-0.4 0.151-0.872 0.124-1.421v-0c-0.043-2.321-0.464-4.277-1.252-5.813-0.612-1.193-1.325-1.908-1.938-2.336 0.719-0.739 1.134-1.79 1.134-3.003 0-2.182-1.741-3.957-3.88-3.957s-3.88 1.775-3.88 3.957c0 0.253 0.205 0.457 0.457 0.457h0.311c-0.029 0.173-0.044 0.348-0.044 0.527 0 1.538 1.099 2.823 2.551 3.111-0.152 0.565-0.228 1.232-0.228 1.989l-1.141 0.981-2.775 0.224-3.201-1.058c-0.293-0.098-0.626-0.208-0.915 0-0.284 0.205-0.284 0.564-0.284 0.682v2.38c0 0.253 0.205 0.457 0.457 0.457h0.544l-0.835 2.886c-0.070 0.243 0.070 0.496 0.312 0.566s0.496-0.070 0.566-0.312l0.909-3.14h1.3c-1.617 4.931-0.694 8.223 0.724 11.554h-0.822l-3.424-3.828 0.724-2.501c0.070-0.243-0.069-0.496-0.312-0.566s-0.496 0.070-0.566 0.312l-0.692 2.392c-2.142-0.036-4.058 1.441-4.546 3.566-0.057 0.246 0.097 0.491 0.343 0.548l0.649 0.149c-0.166 1.723 0.969 3.348 2.699 3.746 0.263 0.061 0.528 0.090 0.791 0.090 0.649 0 1.287-0.182 1.851-0.535 0.662-0.415 1.155-1.025 1.422-1.745l0.512 0.118c0.153 0.035 0.297 0.053 0.442-0.025 0.135-0.072 0.224-0.203 0.258-0.351 0.032-0.15 0.057-0.302 0.074-0.455h9.565c0.306 1.902 1.924 3.335 3.856 3.335s3.55-1.433 3.856-3.335h0.349c0 0 0.069 0.001 0.085 0.001 0.131 0 0.32-0.015 0.475-0.172 0.078-0.079 0.169-0.22 0.162-0.445-0.013-0.429-0.077-0.844-0.187-1.239 0.364-2.211 0.014-3.558-0.506-4.612 0.328-0.215 0.546-0.586 0.546-1.008v-1.257h2.31c0.914 0 1.657-0.744 1.657-1.658v-5.35c0-0.914-0.743-1.658-1.657-1.658zM6.225 29.411c-0.585 0.367-1.278 0.484-1.951 0.329h-0c-1.238-0.285-2.063-1.42-2.003-2.647l4.961 1.142c-0.205 0.483-0.553 0.892-1.007 1.177zM8.513 27.59l-7.114-1.637c0.549-1.503 2.026-2.498 3.641-2.413l3.485 3.896c-0.003 0.051-0.007 0.102-0.012 0.153zM15.421 19.621c-0.133 0.35-0.133 0.782-0.133 1.379v1.726h-1.675v-2.368c0-2.677 1.461-3.154 2.116-3.232h4.483c-0.018 0.608-0.155 1.039-0.415 1.313-0.303 0.319-0.822 0.475-1.587 0.476l-1.642 0.002c-0.585 0-0.972 0.237-1.149 0.704zM15.288 23.64v1.092c-0.004 0-0.008 0-0.013 0h-3.248c0.037-0.339 0.142-0.601 0.315-0.782 0.258-0.27 0.621-0.31 0.814-0.31h2.132zM20.194 16.211h-4.159c-0.167-0.526-0.316-1.101-0.438-1.692l1.264-0.821c0.69-0.448 1.049-1.082 0.985-1.738-0.057-0.582-0.452-1.101-1.007-1.324-0.507-0.203-1.053-0.139-1.535 0.169 0.040-0.437 0.114-0.828 0.221-1.159 0.195-0.020 0.389-0.058 0.579-0.114 0.387-0.090 0.745-0.233 1.068-0.423 0.881 0.526 2.818 2.233 3.023 7.102zM12.256 5.050c0.216-1.461 1.448-2.585 2.931-2.585 1.635 0 2.965 1.365 2.965 3.042 0 1.364-0.654 2.464-1.709 2.948v-2.406c0-0.417-0.159-0.928-0.919-0.997-0.014-0.001-0.028-0.002-0.042-0.002h-3.227zM12.947 6.492c0-0.181 0.021-0.357 0.061-0.527h2.453c0.028 0.003 0.049 0.006 0.064 0.009 0.002 0.017 0.004 0.041 0.004 0.075v2.675c-0.109 0.016-0.219 0.024-0.328 0.024-0.001 0-0.002 0-0.003 0-1.241-0.001-2.251-1.013-2.251-2.257zM12.354 13.56l1.083-0.088c0.096-0.008 0.188-0.046 0.261-0.109l1.955-1.682c0.189-0.163 0.391-0.246 0.587-0.246 0.087 0 0.174 0.017 0.258 0.050 0.242 0.097 0.413 0.318 0.437 0.563 0.030 0.309-0.173 0.622-0.573 0.882l-2.178 1.414h-1.831v-0.784h-0zM10.421 13.717l1.018-0.082v0.71h-1.183c-0.153 0-0.191-0.127-0.195-0.234-0.002-0.061 0.003-0.365 0.36-0.394zM9.339 13.401c-0.138 0.226-0.202 0.49-0.192 0.747 0.003 0.067 0.011 0.131 0.023 0.193 0 0.001-0.001 0.003-0 0.004h-2.216v-1.736l2.386 0.789c-0.001 0.001-0.001 0.002-0.002 0.004zM10.259 15.259h4.061c0.088 0 0.175-0.026 0.249-0.074l0.207-0.134c0.1 0.44 0.213 0.868 0.336 1.273-0.933 0.275-2.413 1.165-2.413 4.034v2.413c-0.321 0.065-0.7 0.214-1.018 0.547-0.335 0.35-0.526 0.825-0.572 1.414h-0.923c-0.93-2.679-1.283-5.53 0.072-9.473zM11.012 26.812c-0.169-0.389-0.332-0.776-0.485-1.165h4.748c0.615 0 0.927-0.28 0.927-0.833v-3.357h3.61c0.253 0 0.457-0.205 0.457-0.457s-0.205-0.457-0.457-0.457h-3.606c0.006-0.26 0.022-0.472 0.070-0.598 0.023-0.061 0.043-0.114 0.294-0.114l1.642-0.002c1.028-0.001 1.764-0.25 2.249-0.761 0.022-0.024 0.044-0.048 0.065-0.073h6.178v1.257c0 0.157-0.132 0.29-0.289 0.29h-4.553c-0.253 0-0.457 0.205-0.457 0.457s0.205 0.457 0.457 0.457h4.284c0.362 0.671 0.687 1.506 0.667 2.825-0.905-1.257-2.369-2.065-4.032-2.065-1.335 0-2.588 0.524-3.527 1.475-0.834 0.844-1.335 1.939-1.438 3.121l-6.805-0.001zM22.839 30.148c-1.43 0-2.635-1.030-2.927-2.42h5.854c-0.292 1.39-1.498 2.42-2.927 2.42zM26.286 26.813h-7.55c0.225-2.068 1.954-3.681 4.046-3.681 1.837 0 3.381 1.212 3.892 2.908 0.002 0.005 0.003 0.011 0.005 0.016 0.072 0.243 0.123 0.497 0.151 0.758h-0.544zM30.672 17.338c0 0.41-0.333 0.743-0.742 0.743h-6.036v-2.362h6.779v1.618zM30.672 14.805h-6.779v-0.973h6.779v0.973zM30.672 12.918h-6.779v-0.93c0-0.41 0.333-0.743 0.742-0.743h5.294c0.409 0 0.742 0.333 0.742 0.743v0.93z"></path>
</symbol>
<symbol id="icon-timer" viewBox="0 0 42 32">
<path fill="#09a66d" style="fill: var(--color3, #09a66d)" d="M3.62 7.794h6.379c0.334 0 0.605-0.271 0.605-0.605s-0.271-0.605-0.605-0.605h-6.379c-0.334 0-0.605 0.271-0.605 0.605s0.271 0.605 0.605 0.605z"></path>
<path fill="#09a66d" style="fill: var(--color3, #09a66d)" d="M9.78 10.706h-2.52c-0.334 0-0.605 0.271-0.605 0.605s0.271 0.605 0.605 0.605h2.52c0.334 0 0.605-0.271 0.605-0.605s-0.271-0.605-0.605-0.605z"></path>
<path fill="#09a66d" style="fill: var(--color3, #09a66d)" d="M1.090 14.9h6.17c0.334 0 0.605-0.271 0.605-0.605s-0.271-0.605-0.605-0.605h-6.17c-0.334 0-0.605 0.271-0.605 0.605s0.271 0.605 0.605 0.605z"></path>
<path fill="#09a66d" style="fill: var(--color3, #09a66d)" d="M10.604 25.623c0-0.334-0.271-0.605-0.605-0.605h-6.379c-0.334 0-0.605 0.271-0.605 0.605s0.271 0.605 0.605 0.605h6.379c0.334 0 0.605-0.271 0.605-0.605z"></path>
<path fill="#09a66d" style="fill: var(--color3, #09a66d)" d="M9.78 20.897h-2.52c-0.334 0-0.605 0.271-0.605 0.605s0.271 0.605 0.605 0.605h2.52c0.334 0 0.605-0.271 0.605-0.605s-0.271-0.605-0.605-0.605z"></path>
<path fill="#09a66d" style="fill: var(--color3, #09a66d)" d="M7.865 18.517c0-0.334-0.271-0.605-0.605-0.605h-6.17c-0.334 0-0.605 0.271-0.605 0.605s0.271 0.605 0.605 0.605h6.17c0.334 0 0.605-0.271 0.605-0.605z"></path>
<path fill="#09a66d" style="fill: var(--color3, #09a66d)" d="M26.253 9.134c0.334 0 0.605-0.271 0.605-0.605v-0.923c0-0.334-0.271-0.605-0.605-0.605s-0.605 0.271-0.605 0.605v0.923c0 0.334 0.271 0.605 0.605 0.605z"></path>
<path fill="#09a66d" style="fill: var(--color3, #09a66d)" d="M32.904 9.756c-0.236-0.236-0.619-0.236-0.855 0l-0.653 0.653c-0.236 0.236-0.236 0.619 0 0.855s0.619 0.236 0.855 0l0.653-0.653c0.236-0.236 0.236-0.619 0-0.855z"></path>
<path fill="#09a66d" style="fill: var(--color3, #09a66d)" d="M34.129 15.801c-0.334 0-0.605 0.271-0.605 0.605s0.271 0.605 0.605 0.605h0.923c0.334 0 0.605-0.271 0.605-0.605s-0.271-0.605-0.605-0.605h-0.923z"></path>
<path fill="#09a66d" style="fill: var(--color3, #09a66d)" d="M32.251 21.548c-0.236-0.236-0.619-0.236-0.855 0s-0.236 0.619 0 0.855l0.653 0.653c0.236 0.236 0.619 0.236 0.855 0s0.236-0.619 0-0.855l-0.653-0.653z"></path>
<path fill="#09a66d" style="fill: var(--color3, #09a66d)" d="M25.648 24.283v0.923c0 0.334 0.271 0.605 0.605 0.605s0.605-0.271 0.605-0.605v-0.923c0-0.334-0.271-0.605-0.605-0.605s-0.605 0.271-0.605 0.605z"></path>
<path fill="#09a66d" style="fill: var(--color3, #09a66d)" d="M20.256 21.548l-0.653 0.653c-0.236 0.236-0.236 0.619 0 0.855s0.619 0.236 0.855 0l0.653-0.653c0.236-0.236 0.236-0.619 0-0.855s-0.619-0.236-0.855 0z"></path>
<path fill="#09a66d" style="fill: var(--color3, #09a66d)" d="M17.453 15.801c-0.334 0-0.605 0.271-0.605 0.605s0.271 0.605 0.605 0.605h0.923c0.334 0 0.605-0.271 0.605-0.605s-0.271-0.605-0.605-0.605h-0.923z"></path>
<path fill="#09a66d" style="fill: var(--color3, #09a66d)" d="M21.112 10.409l-0.653-0.653c-0.236-0.236-0.619-0.236-0.855 0s-0.236 0.619 0 0.855l0.653 0.653c0.236 0.236 0.619 0.236 0.855 0s0.236-0.619 0-0.855z"></path>
<path fill="#09a66d" style="fill: var(--color3, #09a66d)" d="M29.506 16.406c0-0.334-0.271-0.605-0.605-0.605h-2.043v-4.491c0-0.334-0.271-0.605-0.605-0.605s-0.605 0.271-0.605 0.605v5.096c0 0.334 0.271 0.605 0.605 0.605h2.648c0.334 0 0.605-0.271 0.605-0.605z"></path>
<path fill="#09a66d" style="fill: var(--color3, #09a66d)" d="M37.722 16.306c0.333-0.020 0.587-0.307 0.567-0.64-0.385-6.347-5.672-11.319-12.036-11.319-6.649 0-12.059 5.41-12.059 12.059s5.41 12.059 12.059 12.059c5.957 0 11.040-4.365 11.925-10.255 0.050-0.33-0.178-0.638-0.508-0.688s-0.638 0.178-0.688 0.508c-0.794 5.291-5.363 9.225-10.728 9.225-5.982 0-10.849-4.867-10.849-10.849s4.867-10.849 10.849-10.849c5.726 0 10.482 4.473 10.828 10.182 0.020 0.333 0.307 0.586 0.64 0.567z"></path>
<path fill="#09a66d" style="fill: var(--color3, #09a66d)" d="M26.254 0.884c-2.127 0-4.212 0.441-6.13 1.267h-10.672c-0.334 0-0.605 0.271-0.605 0.605s0.271 0.605 0.605 0.605h8.396c-1.135 0.731-2.18 1.612-3.102 2.629-0.224 0.247-0.205 0.63 0.042 0.854s0.63 0.205 0.854-0.042c2.71-2.992 6.578-4.708 10.611-4.708 7.892 0 14.312 6.42 14.312 14.312s-6.42 14.312-14.312 14.312c-7.892 0-14.312-6.42-14.312-14.312 0-2.764 0.789-5.446 2.283-7.757 0.181-0.281 0.101-0.655-0.18-0.836s-0.655-0.101-0.836 0.18c-1.62 2.507-2.476 5.416-2.476 8.413 0 5.465 2.839 10.279 7.12 13.045h-8.4c-0.334 0-0.605 0.271-0.605 0.605s0.271 0.605 0.605 0.605h10.663c1.884 0.814 3.959 1.267 6.139 1.267 8.559 0 15.522-6.963 15.522-15.522s-6.963-15.522-15.522-15.522z"></path>
</symbol>
<symbol id="icon-harvest" viewBox="0 0 32 32">
<path fill="#09a66d" style="fill: var(--color3, #09a66d)" d="M22.472 10h1.45c1.207 0 2.218-0.861 2.45-2h-1.45c-1.207 0-2.217 0.861-2.45 2z"></path>
<path fill="#09a66d" style="fill: var(--color3, #09a66d)" d="M11 5.5c0.050 0 0.098 0.006 0.147 0.008l0.351-3.51c0.002-0.294-0.201-0.498-0.45-0.498h-0.095c-0.25 0-0.453 0.203-0.453 0.453l0.354 3.555c0.049-0.002 0.097-0.008 0.146-0.008z"></path>
<path fill="#09a66d" style="fill: var(--color3, #09a66d)" d="M7 16c0-0.171 0.018-0.337 0.045-0.5h-1.045v0.342c0.375 0.179 0.713 0.42 1 0.713v-0.555z"></path>
<path fill="#09a66d" style="fill: var(--color3, #09a66d)" d="M6.595 3.778l1.711 2.518c0.134-0.087 0.273-0.167 0.415-0.24l-1.029-2.829c-0.008-0.020-0.015-0.038-0.024-0.057-0.071-0.141-0.183-0.239-0.322-0.284s-0.288-0.035-0.418 0.030l-0.125 0.063c-0.271 0.135-0.38 0.465-0.245 0.736 0.011 0.020 0.024 0.042 0.038 0.063z"></path>
<path fill="#09a66d" style="fill: var(--color3, #09a66d)" d="M8.691 14.5h5.569l0.656-3.148c0.056-0.268 0.084-0.543 0.084-0.816 0-2.242-1.794-4.036-4-4.036s-4 1.794-4 4c0 0.309 0.029 0.584 0.084 0.852l0.578 2.773c0.55-0.685 1.393-1.125 2.338-1.125v1c-0.502 0-0.957 0.193-1.309 0.5zM12.5 8.5h1v1h-1v-1zM12.5 10.5h1v1h-1v-1zM12.5 12.5h1v1h-1v-1z"></path>
<path fill="#09a66d" style="fill: var(--color3, #09a66d)" d="M5.5 18.5h1.45c-0.232-1.139-1.242-2-2.45-2h-1.45c0.232 1.139 1.242 2 2.45 2z"></path>
<path fill="#09a66d" style="fill: var(--color3, #09a66d)" d="M15.405 3.777c0.013-0.020 0.027-0.042 0.037-0.064 0.134-0.268 0.024-0.599-0.246-0.734l-0.125-0.063c-0.131-0.065-0.278-0.076-0.418-0.030-0.139 0.046-0.252 0.144-0.317 0.275-0.014 0.028-0.022 0.046-0.029 0.066l-1.028 2.829c0.143 0.074 0.281 0.154 0.415 0.24l1.711-2.518z"></path>
<path fill="#09a66d" style="fill: var(--color3, #09a66d)" d="M14.492 24.5h14.008v-3h-14.674c0.441 0.928 0.665 1.949 0.666 3zM26.5 22.5h1v1h-1v-1z"></path>
<path fill="#09a66d" style="fill: var(--color3, #09a66d)" d="M13.232 28.5h13.768c0.827 0 1.5-0.673 1.5-1.5v-1.5h-14.072c-0.159 1.102-0.581 2.123-1.197 3zM26.5 26.5h1v1h-1v-1z"></path>
<path fill="#09a66d" style="fill: var(--color3, #09a66d)" d="M8.071 15.5c-0.042 0.161-0.071 0.326-0.071 0.5v0.5h22.5v-1h-22.429z"></path>
<path fill="#09a66d" style="fill: var(--color3, #09a66d)" d="M8 18.933c0.101-0.024 0.201-0.050 0.293-0.090 1.525-0.652 3.3-0.261 4.413 0.977 0.194 0.215 0.368 0.445 0.531 0.678h15.263v-3h-20.5v1.434zM26.5 18.5h1v1h-1v-1z"></path>
<path fill="#09a66d" style="fill: var(--color3, #09a66d)" d="M11.963 20.49c-0.814-0.905-2.162-1.204-3.277-0.727-0.214 0.091-0.447 0.154-0.686 0.193v0.942c0.496-0.185 0.968-0.575 1.147-0.753l0.707 0.708c-0.117 0.117-1.18 1.146-2.354 1.146s-2.236-1.029-2.354-1.146l0.707-0.708c0.179 0.177 0.651 0.567 1.147 0.753v-1.398h-1.5c-0.17 0-0.335-0.016-0.497-0.040-0.701 0.050-1.442 0.442-1.988 1.055-0.977 1.099-1.514 2.513-1.514 3.985 0 1.646 0.654 3.182 1.841 4.324s2.739 1.731 4.399 1.672c3.091-0.119 5.619-2.634 5.755-5.723 0.069-1.585-0.475-3.107-1.532-4.282zM7.5 29.5c-2.757 0-5-2.243-5-5h1c0 2.206 1.795 4 4 4v1z"></path>
<path fill="#09a66d" style="fill: var(--color3, #09a66d)" d="M26.385 14.5c-0.239-0.929-0.695-1.788-1.345-2.51-0.814-0.905-2.162-1.204-3.277-0.726-0.085 0.037-0.174 0.067-0.264 0.095v-4.359c0-0.827 0.673-1.5 1.5-1.5h0.5v-1h-0.5c-1.378 0-2.5 1.122-2.5 2.5v4.359c-0.090-0.028-0.179-0.059-0.264-0.095-1.114-0.477-2.462-0.178-3.277 0.726-0.649 0.722-1.105 1.581-1.345 2.51h10.771zM18.753 12.069c0.008 0.004 0.765 0.431 2.247 0.431s2.239-0.427 2.247-0.431l0.511 0.86c-0.038 0.024-0.973 0.572-2.757 0.572s-2.718-0.548-2.758-0.572l0.511-0.86z"></path>
</symbol>
<symbol id="icon-instagram" viewBox="0 0 32 32">
<path d="M30.819 10.042c-0.072-1.632-0.336-2.754-0.714-3.727-0.39-1.032-0.99-1.956-1.776-2.724-0.768-0.78-1.698-1.386-2.719-1.77-0.978-0.378-2.094-0.642-3.727-0.714-1.644-0.078-2.167-0.096-6.337-0.096s-4.693 0.018-6.331 0.090c-1.632 0.072-2.754 0.336-3.727 0.714-1.032 0.39-1.956 0.99-2.725 1.776-0.78 0.768-1.386 1.698-1.77 2.719-0.378 0.978-0.642 2.094-0.714 3.727-0.078 1.644-0.096 2.167-0.096 6.337s0.018 4.693 0.090 6.331c0.072 1.632 0.336 2.754 0.714 3.727 0.39 1.032 0.996 1.956 1.776 2.724 0.768 0.78 1.698 1.386 2.719 1.77 0.978 0.378 2.094 0.642 3.727 0.714 1.638 0.072 2.16 0.090 6.331 0.090s4.693-0.018 6.331-0.090c1.632-0.072 2.754-0.336 3.727-0.714 2.064-0.798 3.697-2.43 4.495-4.495 0.378-0.978 0.642-2.095 0.714-3.727 0.072-1.638 0.090-2.16 0.090-6.331s-0.006-4.693-0.078-6.331zM28.052 22.585c-0.066 1.5-0.318 2.31-0.528 2.851-0.516 1.338-1.578 2.401-2.917 2.917-0.54 0.21-1.356 0.462-2.851 0.528-1.62 0.072-2.106 0.090-6.205 0.090s-4.591-0.018-6.205-0.090c-1.5-0.066-2.31-0.318-2.851-0.528-0.666-0.246-1.272-0.636-1.764-1.146-0.51-0.498-0.9-1.098-1.146-1.764-0.21-0.54-0.462-1.356-0.528-2.851-0.072-1.62-0.090-2.107-0.090-6.205s0.018-4.591 0.090-6.205c0.066-1.5 0.318-2.31 0.528-2.851 0.246-0.666 0.636-1.272 1.152-1.764 0.498-0.51 1.098-0.9 1.764-1.146 0.54-0.21 1.356-0.462 2.851-0.528 1.62-0.072 2.107-0.090 6.205-0.090 4.105 0 4.591 0.018 6.205 0.090 1.5 0.066 2.31 0.318 2.851 0.528 0.666 0.246 1.272 0.636 1.764 1.146 0.51 0.498 0.9 1.098 1.146 1.764 0.21 0.54 0.462 1.356 0.528 2.851 0.072 1.62 0.090 2.106 0.090 6.205s-0.018 4.579-0.090 6.199z"></path>
<path d="M15.546 8.482c-4.357 0-7.892 3.535-7.892 7.891s3.535 7.892 7.892 7.892c4.357 0 7.891-3.535 7.891-7.892s-3.535-7.892-7.891-7.892zM15.546 21.492c-2.826 0-5.119-2.292-5.119-5.119s2.293-5.119 5.119-5.119c2.827 0 5.119 2.292 5.119 5.119s-2.292 5.119-5.119 5.119z"></path>
<path d="M25.592 8.17c0 1.017-0.825 1.842-1.843 1.842s-1.842-0.825-1.842-1.842c0-1.018 0.825-1.842 1.842-1.842s1.843 0.825 1.843 1.842z"></path>
</symbol>
<symbol id="icon-planet-earth" viewBox="0 0 33 32">
<path fill="#89c8fd" style="fill: var(--color4, #89c8fd)" d="M24.242 18.41c0-5.816-4.702-10.531-10.503-10.531s-10.503 4.715-10.503 10.531c0 5.816 4.702 10.531 10.503 10.531s10.503-4.715 10.503-10.531z"></path>
<path fill="#60b6ff" style="fill: var(--color5, #60b6ff)" d="M13.739 7.879c-0.539 0-1.069 0.041-1.586 0.119 5.048 0.767 8.917 5.136 8.917 10.412s-3.869 9.645-8.917 10.412c0.517 0.079 1.047 0.119 1.586 0.119 5.801 0 10.503-4.715 10.503-10.531s-4.702-10.531-10.503-10.531z"></path>
<path fill="#baeb6c" style="fill: var(--color6, #baeb6c)" d="M12.374 11.971c-1.618 1.014-2.832 2.636-1.921 4.461s2.933 1.115 4.803 0.862c1.871-0.253 0.455 5.526 1.567 6.945s4.247-1.419 3.944-3.245c-0.449-2.702-0.607-3.65 3.034-5.576l0.010-0.004c-1.227-4.155-4.941-7.238-9.414-7.515l-0.001 0.016c0 0-0.405 3.042-2.022 4.056z"></path>
<path fill="#baeb6c" style="fill: var(--color6, #baeb6c)" d="M20.32 10.202c0.001 0.001 0.002 0.001 0.002 0.002-0.001-0.001-0.002-0.001-0.002-0.002z"></path>
<path fill="#baeb6c" style="fill: var(--color6, #baeb6c)" d="M21.604 11.431c0 0 0 0.001 0 0.001s-0-0-0-0.001z"></path>
<path fill="#baeb6c" style="fill: var(--color6, #baeb6c)" d="M6.762 23.175c-0.486-0.741 0.86-2.484 1.163-3.802s-1.517-1.217-2.073-1.673c-0.556-0.456-1.315-2.433-1.871-2.89l-0.089-0.070c-0.424 1.143-0.656 2.379-0.656 3.669 0 3.481 1.685 6.567 4.281 8.484l0.003-0.221c0 0 0.404-1.724-0.758-3.498z"></path>
<path fill="#baeb6c" style="fill: var(--color6, #baeb6c)" d="M20.767 20.995c-0.002-0.013-0.004-0.026-0.007-0.039-0.201 0.812-0.496 1.586-0.872 2.312 0.597-0.705 0.997-1.565 0.879-2.272z"></path>
<path fill="#96d629" style="fill: var(--color7, #96d629)" d="M14.397 7.9l-0 0.016c0 0-0.034 0.254-0.121 0.639 3.683 1.394 6.38 4.804 6.751 8.888 0.464-0.635 1.313-1.25 2.774-2.024l0.010-0.004c-1.227-4.155-4.941-7.238-9.414-7.515z"></path>
<path fill="#09a66d" style="fill: var(--color3, #09a66d)" d="M13.725 32c-0.744 0-1.493-0.061-2.242-0.185-3.579-0.591-6.714-2.541-8.827-5.489s-2.951-6.544-2.36-10.123c0.043-0.259 0.288-0.435 0.547-0.392s0.435 0.288 0.392 0.547c-0.55 3.328 0.23 6.672 2.195 9.414s4.88 4.555 8.209 5.105c6.872 1.135 13.384-3.532 14.52-10.403 0.55-3.328-0.23-6.672-2.195-9.414s-4.88-4.555-8.209-5.105c-0.259-0.043-0.435-0.288-0.392-0.547s0.288-0.435 0.547-0.392c3.58 0.591 6.715 2.541 8.827 5.489s2.951 6.544 2.36 10.123c-0.591 3.579-2.541 6.714-5.49 8.827-2.332 1.671-5.069 2.545-7.882 2.545z"></path>
<path fill="#49cb5c" style="fill: var(--color8, #49cb5c)" d="M10.836 11.493c-5.079-0.862-8.23-7.257-8.23-7.257s5.084-4.998 10.163-4.136c5.079 0.862 8.23 7.257 8.23 7.257s-5.084 4.998-10.163 4.136z"></path>
<path fill="#07b128" style="fill: var(--color9, #07b128)" d="M12.77 0.1c-0.97-0.165-1.94-0.115-2.874 0.072 4.867 1.093 7.869 7.184 7.869 7.184s-3.328 3.271-7.289 4.064c0.119 0.027 0.239 0.052 0.361 0.072 5.079 0.862 10.163-4.136 10.163-4.136s-3.151-6.395-8.23-7.257z"></path>
<path fill="#09a66d" style="fill: var(--color3, #09a66d)" d="M20.713 6.825l-4.967-0.838-4.64-5.974c-0.37 0.022-0.737 0.069-1.099 0.137l4.352 5.603-3.745-0.632-3.196-4.135c-0.3 0.135-0.591 0.279-0.872 0.428l2.685 3.474-6.193-1.045c-0.278 0.243-0.431 0.393-0.431 0.393s0.102 0.207 0.298 0.55l6.159 1.039-3.416 2.641c0.22 0.227 0.451 0.45 0.692 0.668l4.001-3.094 3.965 0.669-5.393 4.172c0.335 0.156 0.681 0.292 1.037 0.4l5.632-4.357 4.97 0.838c0.288-0.251 0.447-0.407 0.447-0.407s-0.098-0.199-0.287-0.531z"></path>
<path fill="#49cb5c" style="fill: var(--color8, #49cb5c)" d="M24.454 5.285c1.363-3.224 6.084-4.31 6.084-4.31s2.512 4.142 1.149 7.366c-1.362 3.224-6.084 4.31-6.084 4.31s-2.512-4.142-1.149-7.366z"></path>
<path fill="#07b128" style="fill: var(--color9, #07b128)" d="M30.538 0.976c0 0-1.073 0.247-2.345 0.855 0.652 1.381 1.686 4.185 0.703 6.511-0.713 1.687-2.344 2.788-3.739 3.455 0.252 0.533 0.447 0.855 0.447 0.855s4.721-1.085 6.084-4.31c1.362-3.224-1.15-7.366-1.15-7.366z"></path>
<path fill="#09a66d" style="fill: var(--color3, #09a66d)" d="M32.073 5.683l-3.63 1.523 2.384-5.699c-0.171-0.337-0.289-0.531-0.289-0.531s-0.225 0.052-0.59 0.166l-2.463 5.889-1.528-3.759c-0.259 0.228-0.503 0.476-0.724 0.745l1.731 4.259-1.626 3.887c0.159 0.31 0.266 0.488 0.266 0.488s0.244-0.056 0.637-0.181l1.679-4.014 4.152-1.742c0.028-0.345 0.026-0.691 0.002-1.033z"></path>
</symbol>
<symbol id="icon-shopping" viewBox="0 0 32 32">
<path fill="#09a66d" style="fill: var(--color3, #09a66d)" d="M11.829 22.412h8.11c0.253 0 0.457-0.205 0.457-0.457s-0.205-0.457-0.457-0.457h-8.11c-0.253 0-0.457 0.205-0.457 0.457s0.205 0.457 0.457 0.457zM13.262 11.92h5.429c0.414 0 0.773-0.266 0.893-0.662l1.139-3.755c0.087-0.286 0.035-0.587-0.143-0.827s-0.451-0.377-0.75-0.377h-0.406l-0.829-2.072c-0.191-0.477-0.646-0.785-1.159-0.785h-2.921c-0.514 0-0.969 0.308-1.159 0.785l-0.829 2.072h-0.406c-0.299 0-0.572 0.138-0.75 0.378s-0.23 0.541-0.143 0.827l1.14 3.755c0.12 0.396 0.479 0.662 0.893 0.662zM12.107 7.221c0.014-0.019 2.488-0.002 2.505-0.008 0.253 0 0.457-0.205 0.457-0.457s-0.205-0.457-0.457-0.457h-1.099l0.693-1.733c0.051-0.128 0.173-0.21 0.31-0.21h2.921c0.137 0 0.259 0.082 0.31 0.21l0.693 1.733h-1.694c-0.253 0-0.457 0.205-0.457 0.457s0.205 0.457 0.457 0.457c0.015 0 3.088-0.008 3.1 0.008 0.014 0.018-1.137 3.752-1.137 3.771 0 0.041-5.463 0.008-5.466 0-0.006-0.019-1.15-3.753-1.137-3.771zM11.829 26.974c-0.253 0-0.457 0.205-0.457 0.457s0.205 0.457 0.457 0.457h8.11c0.253 0 0.457-0.205 0.457-0.457s-0.205-0.457-0.457-0.457h-8.11zM24.055 25.602c0-0.253-0.205-0.457-0.457-0.457h-11.769c-0.253 0-0.457 0.205-0.457 0.457s0.205 0.457 0.457 0.457h11.769c0.253 0 0.457-0.205 0.457-0.457zM26.341 20.716c0.253 0 0.457-0.205 0.457-0.457v-17.275c0-1.261-1.026-2.287-2.287-2.287h-17.071c-1.261 0-2.287 1.026-2.287 2.287v26.646c0 1.261 1.026 2.287 2.287 2.287h17.071c1.261 0 2.287-1.026 2.287-2.287v-7.237c0-0.253-0.205-0.457-0.457-0.457s-0.457 0.205-0.457 0.457v7.237c0 0.757-0.616 1.372-1.372 1.372h-17.071c-0.757 0-1.372-0.616-1.372-1.372v-26.646c0-0.757 0.615-1.372 1.372-1.372h17.071c0.756 0 1.372 0.615 1.372 1.372v17.275c-0 0.253 0.205 0.457 0.457 0.457zM10.021 22.762c-0.225 0.003-0.461 0.005-0.678 0.006 0.154-0.209 0.348-0.478 0.591-0.825 0.213-0.304 0.363-0.579 0.402-0.865 0.006-0.047 0.019-0.131 0.019-0.176 0-0.681-0.554-1.236-1.236-1.236-0.589 0-1.099 0.419-1.213 0.997-0.049 0.248 0.113 0.488 0.361 0.537s0.488-0.113 0.537-0.361c0.029-0.15 0.162-0.258 0.315-0.258 0.169 0 0.309 0.132 0.32 0.298 0.012 0.164-0.072 0.278-0.255 0.539-0.48 0.687-0.767 1.062-0.921 1.263-0.269 0.352-0.397 0.811 0.068 0.966 0.060 0.020 1.267 0.034 1.701 0.028 0.253-0.003 0.455-0.21 0.451-0.463s-0.213-0.456-0.463-0.452zM23.598 19.668h-11.769c-0.253 0-0.457 0.205-0.457 0.457s0.205 0.457 0.457 0.457h11.769c0.253 0 0.457-0.205 0.457-0.457s-0.205-0.457-0.457-0.457zM9.191 25.145c-0.589 0-1.099 0.419-1.213 0.997-0.049 0.248 0.113 0.488 0.361 0.537s0.488-0.113 0.537-0.361c0.029-0.15 0.162-0.258 0.315-0.258 0.177 0 0.321 0.144 0.321 0.321s-0.144 0.321-0.321 0.321c-0.253 0-0.457 0.205-0.457 0.457s0.205 0.457 0.457 0.457c0.177 0 0.321 0.144 0.321 0.321s-0.144 0.321-0.321 0.321c-0.159 0-0.296-0.119-0.318-0.276-0.002-0.015-0.003-0.030-0.003-0.045 0-0.253-0.205-0.457-0.457-0.457s-0.457 0.205-0.457 0.457c0 0.672 0.557 1.236 1.236 1.236 0.681 0 1.236-0.554 1.236-1.236 0-0.295-0.104-0.566-0.277-0.778 0.173-0.213 0.277-0.484 0.277-0.778 0-0.681-0.554-1.236-1.236-1.236zM9.191 18.172c0.253 0 0.457-0.205 0.457-0.457v-3.042c0-0.252-0.205-0.457-0.457-0.457h-0.65c-0.253 0-0.457 0.205-0.457 0.457s0.205 0.457 0.457 0.457h0.193v2.585c0 0.253 0.205 0.457 0.457 0.457zM11.829 16.959h8.11c0.253 0 0.457-0.205 0.457-0.457s-0.205-0.457-0.457-0.457h-8.11c-0.253 0-0.457 0.205-0.457 0.457s0.205 0.457 0.457 0.457zM23.598 14.215h-11.769c-0.253 0-0.457 0.205-0.457 0.457s0.205 0.457 0.457 0.457h11.769c0.253 0 0.457-0.205 0.457-0.457s-0.205-0.457-0.457-0.457z"></path>
</symbol>
<symbol id="icon-user" viewBox="0 0 32 32">
<path fill="#09a66d" style="fill: var(--color3, #09a66d)" d="M16.002 0c-4.572 0-8.308 3.737-8.308 8.308s3.737 8.308 8.308 8.308c4.571 0 8.308-3.737 8.308-8.308s-3.737-8.308-8.308-8.308z"></path>
<path fill="#09a66d" style="fill: var(--color3, #09a66d)" d="M30.261 23.256c-0.218-0.544-0.508-1.052-0.834-1.524-1.669-2.467-4.245-4.1-7.147-4.499-0.363-0.036-0.762 0.036-1.052 0.254-1.524 1.125-3.338 1.705-5.224 1.705s-3.701-0.58-5.225-1.705c-0.29-0.218-0.689-0.326-1.052-0.254-2.902 0.399-5.515 2.032-7.147 4.499-0.327 0.472-0.617 1.016-0.834 1.524-0.109 0.218-0.073 0.472 0.036 0.689 0.29 0.508 0.653 1.016 0.98 1.451 0.508 0.689 1.052 1.306 1.669 1.887 0.508 0.508 1.088 0.98 1.669 1.451 2.866 2.141 6.313 3.265 9.868 3.265s7.002-1.125 9.869-3.265c0.581-0.435 1.161-0.943 1.669-1.451 0.581-0.581 1.161-1.197 1.669-1.887 0.363-0.472 0.689-0.943 0.98-1.451 0.181-0.218 0.218-0.472 0.109-0.689z"></path>
</symbol>
<symbol id="icon-star-half" viewBox="0 0 33 32">
<path fill="#f1b90b" style="fill: var(--color10, #f1b90b)" d="M16.618 22.406l5.959 3.335-1.332-6.697 5.014-4.637-6.782-0.804-2.86-6.201v15.004zM16.618 25.622l-9.897 5.54 2.21-11.124-8.328-7.701 11.263-1.336 4.751-10.299 4.751 10.299 11.263 1.336-8.328 7.701 2.21 11.124-9.897-5.54z"></path>
</symbol>
<symbol id="icon-arrow-1" viewBox="0 0 20 32">
<path fill="#ccc" style="fill: var(--color11, #ccc)" d="M6.821 15.247l11.733 11.733-3.352 3.352-15.085-15.085 15.085-15.085 3.352 3.352-11.733 11.733z"></path>
</symbol>
<symbol id="icon-facebook" viewBox="0 0 17 32">
<path d="M9.729 11.571v-3.84c0-1.060 0.86-1.92 1.92-1.92h1.92v-4.8h-3.84c-3.181 0-5.76 2.579-5.76 5.76v4.8h-3.84v4.8h3.84v15.36h5.76v-15.36h3.84l1.92-4.8h-5.76z"></path>
</symbol>
<symbol id="icon-twitter" viewBox="0 0 40 32">
<path d="M38.561 3.757c-1.428 0.626-2.95 1.042-4.536 1.243 1.632-0.974 2.878-2.506 3.463-4.351-1.522 0.907-3.202 1.548-4.992 1.906-1.445-1.538-3.504-2.491-5.75-2.491-4.358 0-7.867 3.538-7.867 7.874 0 0.624 0.053 1.224 0.182 1.795-6.545-0.319-12.336-3.456-16.226-8.234-0.679 1.178-1.078 2.527-1.078 3.979 0 2.726 1.404 5.143 3.497 6.542-1.265-0.024-2.506-0.391-3.557-0.97 0 0.024 0 0.055 0 0.086 0 3.826 2.729 7.003 6.307 7.735-0.641 0.175-1.339 0.259-2.064 0.259-0.504 0-1.013-0.029-1.49-0.134 1.020 3.118 3.914 5.41 7.356 5.484-2.678 2.095-6.079 3.358-9.761 3.358-0.646 0-1.265-0.029-1.884-0.108 3.487 2.249 7.62 3.533 12.077 3.533 14.486 0 22.406-12 22.406-22.402 0-0.348-0.012-0.684-0.029-1.018 1.562-1.109 2.875-2.494 3.946-4.087z"></path>
</symbol>
<symbol id="icon-star-light" viewBox="0 0 32 32">
<path fill="#fed42d" style="fill: var(--color12, #fed42d)" d="M31.954 12.329c-0.11-0.339-0.404-0.587-0.757-0.638l-9.92-1.442-4.436-8.989c-0.158-0.32-0.484-0.523-0.841-0.523s-0.683 0.203-0.841 0.523l-4.437 8.989-9.92 1.442c-0.353 0.051-0.647 0.299-0.757 0.638s-0.018 0.712 0.237 0.961l7.178 6.997-1.694 9.88c-0.060 0.352 0.084 0.707 0.373 0.917s0.671 0.238 0.987 0.071l8.873-4.665 8.872 4.665c0.137 0.072 0.287 0.108 0.436 0.108 0.194 0 0.388-0.060 0.551-0.179 0.289-0.21 0.433-0.565 0.373-0.917l-1.695-9.88 7.179-6.997c0.256-0.249 0.348-0.622 0.237-0.961z"></path>
</symbol>
<symbol id="icon-star" viewBox="0 0 33 32">
<path fill="#f1b90b" style="fill: var(--color10, #f1b90b)" d="M17.121 25.622l-9.897 5.54 2.21-11.124-8.328-7.701 11.263-1.336 4.751-10.299 4.751 10.299 11.263 1.336-8.328 7.701 2.21 11.124-9.897-5.54z"></path>
</symbol>
</defs>
</svg>
